<svg width="60" height="51" viewBox="0 0 60 51" fill="none" xmlns="http://www.w3.org/2000/svg">
<path d="M60 8.75985V29.1827C59.9991 30.7184 59.5946 32.2268 58.8269 33.5568C58.0592 34.8868 56.9555 35.9917 55.6262 36.7607L54.2722 37.5404L54.2651 37.5475H54.2581C54.251 37.5475 54.2439 37.5546 54.2297 37.5617L34.3739 49.0243C33.0424 49.7906 31.533 50.1939 29.9966 50.1939C28.4602 50.1939 26.9508 49.7906 25.6193 49.0243L4.38117 36.7607C2.89714 35.9047 1.6987 34.6298 0.936007 33.0957C0.92823 33.0805 0.91871 33.0663 0.907645 33.0532C0.904667 33.0451 0.899819 33.0378 0.893474 33.0319V33.0249C0.889426 33.0212 0.886896 33.0161 0.886378 33.0107C0.303611 31.8187 0.000549946 30.5095 0.000275287 29.1827V9.05758C-0.00314533 8.67776 0.0253171 8.29837 0.0853486 7.92337C3.77231 15.1878 9.96049 20.875 17.5097 23.937V24.1213L26.5266 29.3316C27.5841 29.9411 28.7831 30.2619 30.0037 30.2619C31.2242 30.2619 32.4233 29.9411 33.4807 29.3316L42.4977 24.1213V24.0717C50.0097 21.1154 56.2156 15.5683 59.9929 8.43377C60 8.54719 60 8.64997 60 8.75985Z" fill="url(#paint0_linear)"/>
<path d="M17.5094 8.75991V23.9371C9.96027 20.875 3.77211 15.1878 0.085144 7.92343C0.127049 7.56303 0.19096 7.20562 0.276534 6.85302C0.492164 5.96216 0.84109 5.10896 1.3115 4.32231C2.01773 3.10144 3.01125 2.07138 4.20582 1.32153C5.40039 0.571686 6.75991 0.124716 8.16638 0.0194016C9.36318 -0.0603822 10.5637 0.10646 11.6933 0.509591C12.8231 0.912721 13.8579 1.54355 14.7339 2.36299C15.6098 3.18244 16.3081 4.17302 16.7856 5.27338C17.263 6.37374 17.5094 7.56041 17.5094 8.75991Z" fill="url(#paint1_linear)"/>
<path d="M59.9927 8.43731C56.2154 15.5718 50.0095 21.1189 42.4975 24.0752V9.06112C42.4705 6.80192 43.2974 4.6158 44.8128 2.94004C46.3283 1.26428 48.4204 0.222418 50.6709 0.0228682C52.2655 -0.0854285 53.8591 0.245572 55.2787 0.97986C55.2806 0.97986 55.2823 0.980611 55.2837 0.981937C55.285 0.98327 55.2857 0.98507 55.2857 0.986949C55.2923 0.990755 55.2996 0.99318 55.307 0.994045C56.4585 1.60007 57.461 2.45438 58.2419 3.49523C59.0228 4.53606 59.5628 5.73742 59.8226 7.01244C59.9193 7.48173 59.9763 7.95839 59.9927 8.43731Z" fill="url(#paint2_linear)"/>
<g style="mix-blend-mode:multiply" opacity="0.08">
<g style="mix-blend-mode:multiply" opacity="0.08">
<path d="M17.5094 16.9865V23.9406C9.96027 20.8786 3.77211 15.1914 0.085144 7.92699C0.127049 7.56659 0.19096 7.2091 0.276534 6.85657C3.95563 9.5645 10.5234 14.0234 17.5094 16.9865Z" fill="black"/>
</g>
</g>
<g style="mix-blend-mode:multiply" opacity="0.08">
<g style="mix-blend-mode:multiply" opacity="0.08">
<path d="M59.9928 8.43736C56.2155 15.5719 50.0095 21.119 42.4976 24.0753V17.0148C48.6157 14.3138 54.4243 10.9603 59.8226 7.01248C59.9194 7.48179 59.9762 7.95844 59.9928 8.43736Z" fill="black"/>
</g>
</g>
<g style="mix-blend-mode:screen" opacity="0.6">
<g style="mix-blend-mode:screen" opacity="0.6">
<path d="M0.893738 33.0284C0.900827 33.0355 0.900819 33.0426 0.907908 33.0568C0.904931 33.0487 0.900082 33.0414 0.893738 33.0355V33.0284Z" fill="white"/>
</g>
</g>
<g style="mix-blend-mode:multiply" opacity="0.25">
<g style="mix-blend-mode:multiply" opacity="0.25">
<path d="M54.2297 37.5653L34.3739 49.0279C33.0423 49.7942 31.5329 50.1976 29.9966 50.1976C28.4602 50.1976 26.9508 49.7942 25.6192 49.0279L4.38114 36.7643C2.89711 35.9083 1.69867 34.6335 0.935974 33.0994C0.992685 33.1986 1.09902 33.3687 1.25497 33.6027C1.62725 34.1334 2.05239 34.6251 2.52386 35.0701C3.25251 35.749 4.08541 36.3067 4.99078 36.7217C6.03992 37.2605 7.22374 37.8701 8.49973 38.5578C11.073 39.9046 14.0503 41.5138 17.219 43.2718C18.7998 44.1579 20.4444 45.0511 22.0961 46.001C22.9255 46.476 23.7549 46.9509 24.5913 47.4259L25.8461 48.1418C26.2276 48.3676 26.6258 48.5643 27.037 48.7302C28.6507 49.4002 30.4419 49.5125 32.1267 49.0492C32.9676 48.8078 33.7714 48.4525 34.5157 47.993C35.3309 47.5393 36.1319 47.0927 36.9259 46.6532C40.1017 44.8951 43.079 43.286 45.6451 41.9391C50.4584 39.3836 53.8256 37.7532 54.2297 37.5653Z" fill="black"/>
</g>
</g>
<g style="mix-blend-mode:multiply" opacity="0.25">
<g style="mix-blend-mode:multiply" opacity="0.25">
<path d="M59.9927 8.43737L59.3334 9.78424L58.6104 11.1098L57.8235 12.3929L56.9729 13.6406L56.0584 14.8457L55.0943 16.0153L54.0664 17.1353L52.9889 18.2058L51.8618 19.2265L50.6851 20.1977L49.4658 21.1122L48.204 21.9699L46.8997 22.7709L45.5599 23.5153L44.1846 24.1887L43.1851 24.6211L42.8874 24.7983C40.8742 25.9964 38.868 27.2085 36.8406 28.3853L33.7854 30.1575C32.6278 30.8032 31.3254 31.1447 29.9999 31.1499C29.3397 31.1467 28.6824 31.061 28.0434 30.8947C27.7258 30.809 27.4133 30.7047 27.1077 30.5828C26.8063 30.4616 26.5128 30.322 26.2287 30.1646L23.1663 28.3853C21.1389 27.2085 19.1328 25.9964 17.1196 24.8054L16.7226 24.5715V24.4439L15.801 24.0328L14.4258 23.3381L13.086 22.5725L11.7817 21.7502L10.5199 20.8641L9.2935 19.9283L8.12385 18.9359L7.00382 17.8868L5.93342 16.7951L4.91262 15.6467L3.95563 14.4558L3.04826 13.2294L2.21179 11.9534L1.43201 10.6491L0.723132 9.3022L0.085144 7.92697L0.872004 9.22422L1.70848 10.4719L2.59458 11.6911L3.52321 12.8679L4.50147 14.0021L5.52227 15.0938L6.59267 16.1358L7.69143 17.1353L8.83982 18.0852L10.0307 18.9784L11.2429 19.8291L12.4976 20.6159L13.7807 21.3532L15.0992 22.0337L16.439 22.6575L17.5094 23.097V24.1249L26.5264 29.3352C27.5838 29.9447 28.7829 30.2655 30.0035 30.2655C31.224 30.2655 32.4231 29.9447 33.4805 29.3352L42.4975 24.1249V23.2388L43.575 22.8064L44.9077 22.2038L46.2191 21.5517L47.5022 20.8357L48.7498 20.063L49.9691 19.2407L51.16 18.3688L52.3084 17.4472L53.4143 16.469L54.4847 15.4482L55.5196 14.3849L56.505 13.2719L57.4478 12.1235L58.341 10.9326L59.1917 9.69917L59.9927 8.43737Z" fill="black"/>
</g>
</g>
<g style="mix-blend-mode:screen" opacity="0.5">
<g style="mix-blend-mode:screen" opacity="0.5">
<path d="M17.5098 8.75991V15.5439C17.5098 15.5439 17.2688 13.6937 17.1057 10.922C17.0561 10.2344 17.0136 9.47588 16.9781 8.68902C16.9241 7.91265 16.7741 7.14593 16.5315 6.40642C15.9931 4.81407 14.9969 3.41594 13.6676 2.38706C12.9961 1.87172 12.2535 1.45626 11.463 1.15361C10.6964 0.88024 9.89866 0.704008 9.08826 0.629029C8.86851 0.629029 8.65585 0.621944 8.44318 0.621944L8.15963 0.61486L7.86899 0.636125C7.48995 0.655949 7.11304 0.705719 6.74186 0.78498C6.05011 0.932336 5.37883 1.16324 4.74281 1.4726C3.77036 1.95399 2.88795 2.59902 2.13413 3.37949C1.85767 3.67013 1.645 3.90406 1.51031 4.07419C1.41106 4.20179 1.34018 4.28686 1.31183 4.32231C2.01806 3.10144 3.01157 2.07138 4.20614 1.32153C5.40071 0.571686 6.76023 0.124716 8.16672 0.0194016C9.36352 -0.0603822 10.5639 0.10646 11.6937 0.509591C12.8234 0.912721 13.8583 1.54355 14.7342 2.36299C15.6101 3.18244 16.3084 4.17302 16.7859 5.27338C17.2633 6.37374 17.5097 7.56041 17.5098 8.75991Z" fill="white"/>
</g>
</g>
<g style="mix-blend-mode:screen" opacity="0.5">
<g style="mix-blend-mode:screen" opacity="0.5">
<path d="M55.2787 0.97986C55.1936 0.951505 54.8817 0.852261 54.3855 0.731752C53.5941 0.539584 52.7826 0.442018 51.9682 0.441106C51.4355 0.443717 50.9042 0.493539 50.3803 0.589975C50.0974 0.634258 49.8179 0.698216 49.5438 0.781373C49.4091 0.823906 49.2673 0.85935 49.1256 0.901883C48.9838 0.944416 48.842 1.00822 48.7002 1.05784C48.1294 1.29032 47.5812 1.57509 47.0627 1.90849C46.5356 2.26374 46.0484 2.67492 45.6095 3.13486C45.1607 3.58542 44.7636 4.08474 44.4257 4.62351C44.0937 5.15048 43.8136 5.70837 43.5892 6.28937C43.4778 6.5646 43.3831 6.84631 43.3057 7.13296C43.2211 7.40227 43.1548 7.67703 43.1072 7.95527C43.0493 8.23152 43.0066 8.51075 42.9796 8.79175L42.9583 8.99732C42.9512 9.02568 42.9441 9.08239 42.9441 9.08239L42.937 9.18163C42.9229 9.31632 42.9158 9.45101 42.9016 9.5786C42.7315 11.6627 42.4975 13.045 42.4975 13.045V9.06112C42.4705 6.80192 43.2974 4.6158 44.8128 2.94004C46.3283 1.26428 48.4204 0.222418 50.6709 0.0228682C52.2655 -0.0854285 53.8591 0.245572 55.2787 0.97986Z" fill="white"/>
</g>
</g>
<defs>
<linearGradient id="paint0_linear" x1="30" y1="50.9125" x2="30" y2="14.4753" gradientUnits="userSpaceOnUse">
<stop stop-color="#0966BD"/>
<stop offset="0.46865" stop-color="#00C2FF"/>
<stop offset="0.46875" stop-color="#7EDCFA"/>
<stop offset="0.713542" stop-color="#00C2FF"/>
</linearGradient>
<linearGradient id="paint1_linear" x1="8.79728" y1="0.382993" x2="8.79728" y2="25.2536" gradientUnits="userSpaceOnUse">
<stop stop-color="#2895F9"/>
<stop offset="1" stop-color="#035EA1"/>
</linearGradient>
<linearGradient id="paint2_linear" x1="51.2448" y1="0.387936" x2="51.2448" y2="25.2547" gradientUnits="userSpaceOnUse">
<stop stop-color="#53B5FC"/>
<stop offset="1" stop-color="#035EA1"/>
</linearGradient>
</defs>
</svg>
